<svg width="104" height="104" viewBox="0 0 104 104" fill="none" xmlns="http://www.w3.org/2000/svg">
<path d="M3.75346 53.3458H43.5023C45.1975 53.3458 46.2167 51.9834 46.2167 50.6314C46.2167 48.9362 44.8543 47.917 43.5023 47.917H3.75346C2.39106 47.5738 1.03906 48.9362 1.03906 50.2986C1.03906 51.9938 2.40146 53.3458 3.75346 53.3458Z" fill="url(#paint0_linear_1_397)"/>
<path d="M9.53674 31.8634H49.2855C50.9807 31.8634 51.9999 30.501 51.9999 29.149C51.9999 27.4538 50.6375 26.4346 49.2855 26.4346H9.53674C7.84154 26.4346 6.82234 27.797 6.82234 29.149C6.81194 30.501 7.83114 31.8634 9.53674 31.8634Z" fill="url(#paint1_linear_1_397)"/>
<path d="M102.616 53.6953L80.1935 22.1001C79.5175 21.4241 78.8311 21.4241 78.1551 21.4241H66.2679V9.86967C66.2679 8.17447 64.9055 7.15527 63.5535 7.15527H18.0223C16.3271 7.15527 15.3079 8.51767 15.3079 9.86967C15.3079 11.2321 16.3271 12.5841 18.0223 12.5841H60.4855V21.0809V57.7721C60.4855 59.4673 61.8479 60.4865 63.1999 60.4865H97.1767V80.1945H91.0615C89.6991 73.7361 83.9271 68.9833 77.1359 68.9833C70.3447 68.9833 64.5623 73.7361 63.2103 80.1945H40.1119C38.7495 73.7361 32.9775 68.9833 26.1863 68.9833C19.3951 68.9833 13.6127 73.7361 12.2607 80.1945H3.75346C2.05826 80.1945 1.03906 81.5569 1.03906 82.9089C1.03906 84.6041 2.40146 85.6233 3.75346 85.6233H12.5831C13.9455 92.0817 19.7175 96.8345 26.5087 96.8345C33.2999 96.8345 39.0823 92.0817 40.4343 85.6233H63.5327C64.8951 92.0817 70.6671 96.8345 77.4583 96.8345C84.2495 96.8345 90.0319 92.0817 91.3839 85.6233H100.213C101.909 85.6233 102.928 84.2609 102.928 82.9089V54.7145C102.959 54.3817 102.616 54.0385 102.616 53.6953ZM26.5191 91.7489C21.7663 91.7489 18.0223 88.0153 18.0223 83.2521C18.0223 78.4993 21.7559 74.7553 26.5191 74.7553C31.2823 74.7553 35.0159 78.4889 35.0159 83.2521C35.0159 88.0153 31.2719 91.7489 26.5191 91.7489ZM77.4791 91.7489C72.7263 91.7489 68.9823 88.0153 68.9823 83.2521C68.9823 78.4993 72.7159 74.7553 77.4791 74.7553C82.2423 74.7553 85.9759 78.4889 85.9759 83.2521C85.9759 88.0153 82.2319 91.7489 77.4791 91.7489ZM76.8031 26.8633L96.8439 55.0577H66.2679V26.8633H76.8031Z" fill="url(#paint2_linear_1_397)"/>
<path d="M58.3594 26.7656H69.5625L97.1445 55.3711L97.1836 65.8711L96.5 66.9062H58.5L58.3594 26.7656Z" fill="#4A4B50"/>
<defs>
<linearGradient id="paint0_linear_1_397" x1="7.19964" y1="48.424" x2="7.87897" y2="55.9836" gradientUnits="userSpaceOnUse">
<stop stop-color="#F79E67"/>
<stop offset="0.501358" stop-color="#F79E67"/>
<stop offset="1" stop-color="#FDCD81"/>
</linearGradient>
<linearGradient id="paint1_linear_1_397" x1="12.9829" y1="26.9898" x2="13.6491" y2="34.4765" gradientUnits="userSpaceOnUse">
<stop stop-color="#F79E67"/>
<stop offset="0.501358" stop-color="#F79E67"/>
<stop offset="1" stop-color="#FDCD81"/>
</linearGradient>
<linearGradient id="paint2_linear_1_397" x1="14.9333" y1="16.327" x2="71.955" y2="103.816" gradientUnits="userSpaceOnUse">
<stop stop-color="#F79E67"/>
<stop offset="0.501358" stop-color="#F79E67"/>
<stop offset="1" stop-color="#FDCD81"/>
</linearGradient>
</defs>
</svg>
