<svg width="84" height="94" viewBox="0 0 84 94" fill="none" xmlns="http://www.w3.org/2000/svg">
<path fill-rule="evenodd" clip-rule="evenodd" d="M43.8462 1.63532L42 0.193848L40.1538 1.63532L1.15377 32.0853L0 32.9862V34.45V82.2999C0 85.3993 1.22638 88.374 3.41302 90.569C5.60005 92.7645 8.56875 93.9999 11.6667 93.9999H72.3333C75.4313 93.9999 78.4 92.7645 80.587 90.569C82.7736 88.374 84 85.3993 84 82.2999V34.45V32.9862L82.8462 32.0853L43.8462 1.63532ZM6 82.2999V35.9137L42 7.80605L78 35.9137V82.2999C78 83.8154 77.4002 85.2664 76.3362 86.3345C75.2726 87.4022 73.8325 87.9999 72.3333 87.9999H52V73.9999C52 72.8954 51.1046 71.9999 50 71.9999H34C32.8954 71.9999 32 72.8954 32 73.9999V87.9999H11.6667C10.1675 87.9999 8.7274 87.4022 7.6638 86.3345C6.59981 85.2664 6 83.8154 6 82.2999Z" fill="url(#paint0_linear_1_675)"/>
<defs>
<linearGradient id="paint0_linear_1_675" x1="11.4545" y1="9.78766" x2="75.4902" y2="87.2233" gradientUnits="userSpaceOnUse">
<stop stop-color="#F79E67"/>
<stop offset="0.501358" stop-color="#F79E67"/>
<stop offset="1" stop-color="#FDCD81"/>
</linearGradient>
</defs>
</svg>
