<svg width="82" height="97" viewBox="0 0 82 97" fill="none" xmlns="http://www.w3.org/2000/svg">
<path d="M41.0104 60.9885L41.0102 60.9887C40.3672 61.614 39.513 61.9581 38.6116 61.9581H38.6114H38.6113H38.6112H38.6111H38.611H38.6109H38.6107H38.6106H38.6105H38.6104H38.6103H38.6101H38.61H38.6099H38.6098H38.6097H38.6096H38.6094H38.6093H38.6092H38.6091H38.609H38.6088H38.6087H38.6086H38.6085H38.6084H38.6082H38.6081H38.608H38.6079H38.6078H38.6077H38.6075H38.6074H38.6073H38.6072H38.6071H38.6069H38.6068H38.6067H38.6066H38.6065H38.6064H38.6062H38.6061H38.606H38.6059H38.6058H38.6056H38.6055H38.6054H38.6053H38.6052H38.6051H38.6049H38.6048H38.6047H38.6046H38.6045H38.6043H38.6042H38.6041H38.604H38.6039H38.6038H38.6036H38.6035H38.6034H38.6033H38.6032H38.603H38.6029H38.6028H38.6027H38.6026H38.6024H38.6023H38.6022H38.6021H38.602H38.6019H38.6017H38.6016H38.6015H38.6014H38.6013H38.6011H38.601H38.6009H38.6008H38.6007H38.6006H38.6004H38.6003H38.6002H38.6001H38.6H38.5998H38.5997H38.5996H38.5995H38.5994H38.5993H38.5991H38.599H38.5989H38.5988H38.5987H38.5985H38.5984H38.5983H38.5982H38.5981H38.5979H38.5978H38.5977H38.5976H38.5975H38.5974H38.5972H38.5971H38.597H38.5969H38.5968H38.5966H38.5965H38.5964H38.5963H38.5962H38.5961H38.5959H38.5958H38.5957H38.5956H38.5955H38.5953H38.5952H38.5951H38.595H38.5949H38.5948H38.5946H38.5945H38.5944H38.5943H38.5942H38.594H38.5939H38.5938H38.5937H38.5936H38.5935H38.5933H38.5932H38.5931H38.593H38.5929H38.5927H38.5926H38.5925H38.5924H38.5923H38.5922H38.592H38.5919H38.5918H38.5917H38.5916H38.5914H38.5913H38.5912H38.5911H38.591H38.5908H38.5907H38.5906H38.5905H38.5904H38.5903H38.5901H38.59H38.5899H38.5898H38.5897H38.5895H38.5894H38.5893H38.5892H38.5891H38.589H38.5888H38.5887H38.5886H38.5885H38.5884H38.5882H38.5881H38.588H38.5879H38.5878H38.5877H38.5875H38.5874H38.5873H38.5872H38.5871H38.5869H38.5868H38.5867H38.5866H38.5865H38.5864H38.5862H38.5861H38.586H38.5859H38.5858H38.5856H38.5855H38.5854H38.5853H38.5852H38.585H38.5849H38.5848H38.5847H38.5846H38.5845H38.5843H38.5842H38.5841H38.584H38.5839H38.5837H38.5836H38.5835H38.5834H38.5833H38.5832H38.583H38.5829H38.5828H38.5827H38.5826H38.5824H38.5823H38.5822H38.5821H38.582H38.5819H38.5817H38.5816H38.5815H38.5814H38.5813H38.5811H38.581H38.5809H38.5808H38.5807H38.5806H38.5804H38.5803H38.5802H38.5801H38.58H38.5798H38.5797H38.5796H38.5795H38.5794H38.5793H38.5791H38.579H38.5789H38.5788H38.5787H38.5785H38.5784H38.5783H38.5782H38.5781H38.5779H38.5778H38.5777H38.5776H38.5775H38.5774H38.5772H38.5771H38.577H38.5769H38.5768H38.5766H38.5765H38.5764H38.5763H38.5762H38.5761H38.5759H38.5758H38.5757H38.5756H38.5755H38.5753H38.5752H38.5751H38.575H38.5749H38.5748H38.5746H38.5745H38.5744H38.5743H38.5742H38.574H38.5739H38.5738H38.5737H38.5736H38.5735H38.5733H38.5732H38.5731H38.573H38.5729H38.5727H38.5726H38.5725H38.5724H38.5723H38.5721H38.572H38.5719H38.5718H38.5717H38.5716H38.5714H38.5713H38.5712H38.5711H38.571H38.5708H38.5707H38.5706H38.5705H38.5704H38.5703H38.5701H38.57H38.5699H38.5698H38.5697H38.5695H38.5694H38.5693H38.5692H38.5691H38.569H38.5688H38.5687H38.5686H38.5685H38.5684H38.5682H38.5681H38.568H38.5679H38.5678H38.5676H38.5675H38.5674H38.5673H38.5672H38.5671H38.5669H38.5668H38.5667H38.5666H38.5665H38.5663H38.5662H38.5661H38.566H38.5659H38.5658H38.5656H38.5655H38.5654H38.5653H38.5652H38.565H38.5649H38.5648H38.5647H38.5646H38.5645H38.5643H38.5642H38.5641H38.564H38.5639H38.5637H38.5636H38.5635H38.5634H38.5633H38.5632H38.563H38.5629H38.5628H38.5627H38.5626H38.5624H38.5623H38.5622H38.5621H38.562H38.5619H38.5617H38.5616H38.5615H38.5614H38.5613H38.5611H38.561H38.5609H38.5608H38.5607H38.5605H38.5604H38.5603H38.5602H38.5601H38.56H38.5598H38.5597H38.5596H38.5595H38.5594H38.5592H38.5591H38.559H38.5589H38.5588H38.5587H38.5585H38.5584H38.5583H38.5582H38.5581H38.5579H38.5578H38.5577H38.5576H38.5575H38.5574H38.5572H38.5571H38.557H38.5569H38.5568H38.5566H38.5565H38.5564H38.5563H38.5562H38.5561H38.556C37.6368 61.9393 36.7748 61.5681 36.1419 60.9177L23.0231 47.4049C23.0229 47.4048 23.0228 47.4047 23.0227 47.4045C21.7313 46.0688 21.7765 43.9561 23.1365 42.6839C24.5044 41.4043 26.6574 41.4498 27.9611 42.7885C27.9612 42.7886 27.9613 42.7886 27.9614 42.7887L38.3439 53.4742L38.6922 53.8327L39.0508 53.4844L59.0892 34.0217L59.0897 34.0213C60.4285 32.7177 62.5909 32.7346 63.9132 34.0481C65.239 35.3651 65.2224 37.4678 63.8867 38.7686C63.8866 38.7687 63.8865 38.7688 63.8865 38.7689L41.0104 60.9885Z" fill="url(#paint0_linear_61_1922)" stroke="#4A4B50"/>
<path d="M69.0768 69.7124L69.0767 69.7125C66.273 73.3496 62.3404 76.8605 57.4197 80.1622L57.4191 80.1626C50.3694 84.8781 43.3152 87.7935 41.0257 88.6694L40.8471 88.7377L40.6684 88.6694C38.3792 87.7936 31.4017 84.9269 24.2845 80.1625L24.2844 80.1625C19.3536 76.8605 15.4308 73.3496 12.6273 69.7129L69.0768 69.7124ZM69.0768 69.7124C72.4693 65.3087 74.2143 60.7129 74.2143 56.0506V20.5205V20.1703L73.8852 20.0506L41.018 8.09008L40.847 8.02783L40.6759 8.09014L7.81834 20.0604L7.48949 20.1802M69.0768 69.7124L7.48949 20.1802M7.48949 20.1802V20.5302M7.48949 20.1802V20.5302M7.48949 20.5302V56.0506C7.48949 60.7225 9.23429 65.3184 12.6272 69.7127L7.48949 20.5302ZM77.701 14.1264L77.7014 14.1266C79.7349 14.8646 81.1054 16.8328 81.0966 19.0051V19.0071V56.0408C81.0966 62.2314 78.9012 68.2288 74.531 73.8959L74.5306 73.8964C71.2892 78.1105 66.8193 82.1368 61.2517 85.8634L61.2514 85.8636C52.027 92.0472 42.9413 95.3015 42.5665 95.4347C42.0147 95.6301 41.436 95.7282 40.8471 95.7282C40.2522 95.7282 39.6638 95.6216 39.1084 95.4249L39.1068 95.4243C38.596 95.2453 29.5648 91.9813 20.4331 85.8637C14.8653 82.1271 10.3951 78.1006 7.15356 73.896L7.15327 73.8956C2.78337 68.2385 0.587891 62.2315 0.587891 56.0506V19.0071C0.587891 16.8239 1.95898 14.8647 3.99272 14.1266L3.99314 14.1264L39.0815 1.35627C39.0818 1.35616 39.0821 1.35605 39.0824 1.35594C39.6559 1.15018 40.2434 1.04395 40.8471 1.04395C41.4523 1.04395 42.0488 1.15073 42.6103 1.35543L42.6106 1.35553L77.701 14.1264Z" fill="url(#paint1_linear_61_1922)" stroke="#4A4B50"/>
<defs>
<linearGradient id="paint0_linear_61_1922" x1="27.5591" y1="35.6117" x2="44.2936" y2="68.7212" gradientUnits="userSpaceOnUse">
<stop stop-color="#F79E67"/>
<stop offset="0.501358" stop-color="#F79E67"/>
<stop offset="1" stop-color="#FDCD81"/>
</linearGradient>
<linearGradient id="paint1_linear_61_1922" x1="11.2027" y1="10.3298" x2="77.0559" y2="86.085" gradientUnits="userSpaceOnUse">
<stop stop-color="#F79E67"/>
<stop offset="0.501358" stop-color="#F79E67"/>
<stop offset="1" stop-color="#FDCD81"/>
</linearGradient>
</defs>
</svg>
