<svg width="40" height="40" viewBox="0 0 40 40" fill="none" xmlns="http://www.w3.org/2000/svg">
<path d="M13.0261 26.225C15.3286 26.225 16.9111 24.6425 16.9111 22.34V18.86C16.9111 16.5575 15.3286 14.975 13.0261 14.975C10.7236 14.975 9.14111 16.5575 9.14111 18.86V22.34C9.14111 24.6425 10.7236 26.225 13.0261 26.225ZM13.0261 24.5075C11.8861 24.5075 10.9861 23.6075 10.9861 22.4675V18.725C10.9861 17.5775 11.8861 16.6775 13.0261 16.6775C14.1661 16.6775 15.0661 17.5775 15.0661 18.725V22.4675C15.0661 23.6075 14.1661 24.5075 13.0261 24.5075ZM19.1642 27.9125C20.3942 28.115 21.0167 27.3875 21.0167 26.075V24.0725H19.1642V26H20.1242C20.2067 26.6825 19.9592 27.185 19.2692 27.1325L19.1642 27.9125ZM27.6873 19.07C27.1398 19.07 26.5248 19.235 26.0073 19.55L26.1723 16.895H30.4323V15.2H24.5673L24.2373 20.915L25.7823 21.41C26.0748 21.0725 26.6073 20.705 27.4398 20.705C28.4748 20.705 29.3448 21.545 29.3448 22.595C29.3448 23.6375 28.4973 24.4925 27.4398 24.4925C26.6298 24.4925 25.8273 23.9525 25.6098 23.0825L23.8698 23.5475C24.3123 25.1375 25.7298 26.225 27.3723 26.225C29.4048 26.225 31.1598 24.62 31.1598 22.595C31.1598 20.57 29.7123 19.07 27.6873 19.07Z" fill="#F59A65"/>
<circle cx="20" cy="20" r="19" stroke="#F59A65" stroke-width="2"/>
</svg>
