<svg width="40" height="40" viewBox="0 0 40 40" fill="none" xmlns="http://www.w3.org/2000/svg">
<path d="M22.7011 20.3075C23.3761 19.9025 23.7811 19.1525 23.7811 18.17C23.7811 16.715 22.7836 15.2 20.6011 15.2H16.3186V26H21.0361C23.1661 26 24.2836 24.71 24.2836 22.79C24.2836 21.7025 23.7361 20.7425 22.7011 20.3075ZM18.1486 16.8875H20.5786C21.4336 16.8875 21.9436 17.45 21.9436 18.2C21.9436 19.0625 21.3511 19.5125 20.5786 19.5125H18.1486V16.8875ZM20.8111 24.2975H18.1486V21.2H20.8636C21.8761 21.2 22.4611 21.8675 22.4611 22.7375C22.4611 23.6975 21.7561 24.2975 20.8111 24.2975Z" fill="#F59A65"/>
<circle cx="20" cy="20" r="19" stroke="#F59A65" stroke-width="2"/>
</svg>
