<svg width="55" height="49" viewBox="0 0 55 49" fill="none" xmlns="http://www.w3.org/2000/svg">
<path d="M2.38191 25H22.6181C23.4811 25 24 24.503 24 24.0098C24 23.3914 23.3064 23.0196 22.6181 23.0196H2.38191C1.68831 22.8944 1 23.3914 1 23.8884C1 24.5068 1.6936 25 2.38191 25Z" fill="url(#paint0_linear_3_1964)"/>
<path d="M5.44203 14H26.558C27.4586 14 28 13.4981 28 13C28 12.3755 27.2762 12 26.558 12H5.44203C4.54148 12 4.00004 12.5019 4.00004 13C3.99452 13.4981 4.53595 14 5.44203 14Z" fill="url(#paint1_linear_3_1964)"/>
<path d="M54.2693 25.3967L42.4113 8.68768C42.0538 8.33018 41.6908 8.33018 41.3333 8.33018H35.0468V2.21968C35.0468 1.32318 34.3263 0.78418 33.6113 0.78418H9.53228C8.63578 0.78418 8.09678 1.50468 8.09678 2.21968C8.09678 2.94018 8.63578 3.65518 9.53228 3.65518H31.9888V8.14868V27.5527C31.9888 28.4492 32.7093 28.9882 33.4243 28.9882H51.3928V39.4107H48.1588C47.4383 35.9952 44.3858 33.4817 40.7943 33.4817C37.2028 33.4817 34.1448 35.9952 33.4298 39.4107H21.2143C20.4938 35.9952 17.4413 33.4817 13.8498 33.4817C10.2583 33.4817 7.20028 35.9952 6.48528 39.4107H1.98628C1.08978 39.4107 0.550781 40.1312 0.550781 40.8462C0.550781 41.7427 1.27128 42.2817 1.98628 42.2817H6.65578C7.37628 45.6972 10.4288 48.2107 14.0203 48.2107C17.6118 48.2107 20.6698 45.6972 21.3848 42.2817H33.6003C34.3208 45.6972 37.3733 48.2107 40.9648 48.2107C44.5563 48.2107 47.6143 45.6972 48.3293 42.2817H52.9988C53.8953 42.2817 54.4343 41.5612 54.4343 40.8462V25.9357C54.4508 25.7597 54.2693 25.5782 54.2693 25.3967ZM14.0258 45.5212C11.5123 45.5212 9.53228 43.5467 9.53228 41.0277C9.53228 38.5142 11.5068 36.5342 14.0258 36.5342C16.5448 36.5342 18.5193 38.5087 18.5193 41.0277C18.5193 43.5467 16.5393 45.5212 14.0258 45.5212ZM40.9758 45.5212C38.4623 45.5212 36.4823 43.5467 36.4823 41.0277C36.4823 38.5142 38.4568 36.5342 40.9758 36.5342C43.4948 36.5342 45.4693 38.5087 45.4693 41.0277C45.4693 43.5467 43.4893 45.5212 40.9758 45.5212ZM40.6183 11.2067L51.2168 26.1172H35.0468V11.2067H40.6183Z" fill="url(#paint2_linear_3_1964)"/>
<path d="M30.8652 11.155H36.79L51.3766 26.2829L51.3973 31.8358L51.0358 32.3832H30.9396L30.8652 11.155Z" fill="#F6F7F8"/>
<defs>
<linearGradient id="paint0_linear_3_1964" x1="4.13636" y1="23.2045" x2="4.31463" y2="25.9731" gradientUnits="userSpaceOnUse">
<stop stop-color="#F79E67"/>
<stop offset="0.501358" stop-color="#F79E67"/>
<stop offset="1" stop-color="#FDCD81"/>
</linearGradient>
<linearGradient id="paint1_linear_3_1964" x1="7.27273" y1="12.2045" x2="7.44363" y2="14.974" gradientUnits="userSpaceOnUse">
<stop stop-color="#F79E67"/>
<stop offset="0.501358" stop-color="#F79E67"/>
<stop offset="1" stop-color="#FDCD81"/>
</linearGradient>
<linearGradient id="paint2_linear_3_1964" x1="7.89868" y1="5.63462" x2="38.0544" y2="51.903" gradientUnits="userSpaceOnUse">
<stop stop-color="#F79E67"/>
<stop offset="0.501358" stop-color="#F79E67"/>
<stop offset="1" stop-color="#FDCD81"/>
</linearGradient>
</defs>
</svg>
