<svg width="44" height="44" viewBox="0 0 44 44" fill="none" xmlns="http://www.w3.org/2000/svg">
<path d="M21.8863 12.9324C21.8172 13.0068 21.5409 13.2352 21.2806 13.4317C19.2563 14.9566 16.6313 15.8758 13.8737 16.0298L13.2574 16.062L13.2149 16.6199C13.1618 17.3265 13.2096 18.8728 13.3158 19.8345C13.7145 23.4899 15.0374 26.8002 17.1203 29.3613C18.284 30.7853 19.8195 32.1349 21.4187 33.1338L22.0403 33.5217L22.5344 33.2189C24.6278 31.9543 26.514 30.1637 27.8264 28.2031C29.3513 25.9237 30.3502 23.1979 30.7328 20.2863C30.8657 19.2874 30.9401 17.5818 30.8923 16.7796L30.8445 16.0624L30.2282 16.0304C27.4706 15.8765 24.8459 14.9571 22.8214 13.4323C22.561 13.2356 22.2848 13.0072 22.2156 12.933C22.1412 12.8585 22.0722 12.7949 22.0509 12.7949C22.0297 12.7942 21.9608 12.8581 21.8863 12.9324ZM23.8309 23.4741L19.9257 27.3793L18.2679 25.7215L16.6049 24.0585L16.9503 23.7131L17.2956 23.3677L18.5177 24.5898C19.5697 25.6418 19.7609 25.8118 19.8992 25.8118C20.0376 25.8118 20.4836 25.3867 23.5388 22.3315L27.0191 18.8513L27.375 19.2072L27.7363 19.5685L23.8309 23.4741Z" fill="#D64045"/>
<path d="M17.1692 23.4574L20.4231 26.4116L28.5578 18.2769" stroke="#D64045" stroke-width="3"/>
<circle r="21.5" transform="matrix(4.37114e-08 -1 -1 -4.37114e-08 22 22)" stroke="#313238" stroke-opacity="0.26"/>
</svg>
