<svg width="44" height="44" viewBox="0 0 44 44" fill="none" xmlns="http://www.w3.org/2000/svg">
<path d="M13.4247 28H20.5607V25.968H15.6007V16.48H13.4247V28ZM26.5929 28.24C28.9449 28.24 31.2169 27.056 31.2169 24.576C31.2169 22.256 29.2169 21.68 28.0329 21.36L26.0329 20.816C25.2969 20.624 24.4969 20.336 24.4969 19.584C24.4969 18.768 25.4569 18.256 26.4809 18.288C27.5209 18.32 28.5129 18.912 28.7689 20.032L31.1209 19.632C30.5609 17.472 28.8969 16.288 26.5129 16.256C24.1449 16.24 22.2089 17.376 22.2089 19.696C22.2089 21.888 23.9209 22.448 24.8169 22.704L27.8089 23.584C28.7049 23.856 28.9289 24.272 28.9289 24.736C28.9289 25.696 27.8089 26.208 26.7369 26.208C25.4569 26.208 24.3529 25.472 24.0329 24.144L21.7609 24.48C22.1129 26.816 24.0329 28.24 26.5929 28.24Z" fill="#62C370"/>
<circle r="21.5" transform="matrix(4.37114e-08 -1 -1 -4.37114e-08 22 22)" stroke="#313238" stroke-opacity="0.26"/>
</svg>
