<svg width="44" height="44" viewBox="0 0 44 44" fill="none" xmlns="http://www.w3.org/2000/svg">
<path d="M26.1559 13.9277L26.1559 15.1186L25.5145 15.1186L24.8731 15.1186L24.8731 17.2873L24.8731 19.4562L27.6808 24.0576C29.2248 26.5861 30.5313 28.7652 30.5835 28.8919C30.7402 29.2618 30.7591 30.0119 30.6214 30.4426C30.4218 31.0861 29.9469 31.598 29.3149 31.8514L29.0298 31.9679L22.4737 31.983C18.0841 31.9932 15.8084 31.9779 15.5852 31.9425C14.2266 31.7247 13.4 30.2399 13.9082 28.9223C13.9749 28.755 15.2814 26.5659 16.8111 24.0474L19.5998 19.4766L19.5998 17.2975L19.5998 15.1184L18.9584 15.1184L18.317 15.1184L18.317 13.9275L18.317 12.7368L22.2365 12.7368L26.1559 12.7368L26.1559 13.9277ZM20.5024 17.404L20.5024 19.6893L17.6567 24.3616C16.0936 26.9257 14.7729 29.1097 14.7254 29.2062C14.5971 29.4595 14.6067 30.0221 14.7444 30.3006C14.8727 30.5691 15.2385 30.9139 15.4618 30.9797C15.571 31.0101 17.9655 31.0303 22.2838 31.0303C28.6166 31.0303 28.9444 31.0252 29.1248 30.9341C29.5904 30.7111 29.8612 30.2704 29.8612 29.7432C29.8612 29.5507 29.8233 29.358 29.771 29.2313C29.7235 29.1197 28.4076 26.9408 26.8494 24.3919L24.0179 19.7551L24.0179 17.4342L24.0179 15.1184L22.2601 15.1184L20.5022 15.1184L20.5022 17.404L20.5024 17.404Z" fill="#735290"/>
<path d="M24.2692 22.4344C24.3942 22.6782 25.5474 24.0555 26.4508 25.8142C27.3503 27.5729 27.7783 28.1505 27.7866 28.1981C27.799 28.2458 27.771 29.4905 27.7334 29.5435C27.6709 29.623 27.2157 30.1052 21.9985 30.1052C15.8362 30.1052 16.1832 29.6441 16.2288 29.3528C16.2102 28.6749 16.971 27.3292 17.9912 25.3374L19.9473 22L21.9959 22L24.0486 22L24.2692 22.4344Z" fill="#735290"/>
<circle r="21.5" transform="matrix(4.37114e-08 -1 -1 -4.37114e-08 22 22)" stroke="#313238" stroke-opacity="0.26"/>
</svg>
