<svg width="44" height="44" viewBox="0 0 44 44" fill="none" xmlns="http://www.w3.org/2000/svg">
<circle r="21.5" transform="matrix(4.37114e-08 -1 -1 -4.37114e-08 22 22)" stroke="#313238" stroke-opacity="0.3"/>
<path d="M21.7272 11.6601C21.4026 11.8119 21.3621 11.98 21.3621 13.151V14.2027L20.6547 13.5414C20.2605 13.1835 19.8835 12.8582 19.8139 12.8257C19.2804 12.5709 18.7181 13.0913 18.9906 13.5955C19.0254 13.6606 19.5762 14.2027 20.2082 14.799L21.3621 15.8833L21.3505 18.7187L21.3332 21.5486L18.7241 20.139C17.292 19.3692 16.1032 18.7023 16.0917 18.6643C16.0742 18.6264 15.8771 17.9379 15.6451 17.1301C15.2624 15.7964 15.2103 15.6554 15.048 15.5198C14.787 15.303 14.5088 15.3138 14.2535 15.5524C14.1143 15.6826 14.0564 15.7856 14.0564 15.8995C14.0564 15.9917 14.1724 16.4634 14.3116 16.9512C14.4567 17.4337 14.5609 17.8458 14.5493 17.8566C14.5378 17.8674 14.1318 17.6615 13.6449 17.4011C12.4041 16.7287 12.4619 16.7505 12.1894 16.8264C11.8067 16.9348 11.6387 17.3088 11.8242 17.6395C11.9054 17.7913 12.0098 17.851 13.5347 18.6751L13.9637 18.9081L12.9258 19.1737C11.7136 19.4779 11.5918 19.5484 11.5918 19.9549C11.5918 20.1664 11.6209 20.2259 11.7832 20.3615C11.9049 20.4645 12.0324 20.5186 12.1544 20.5186C12.2528 20.5186 13.024 20.3451 13.8706 20.1336C14.7114 19.9222 15.4478 19.7596 15.5114 19.7758C15.6389 19.8084 20.7241 22.5407 20.7241 22.5788C20.7241 22.6168 15.6391 25.3493 15.5114 25.3816C15.4535 25.3924 14.7169 25.2353 13.8706 25.0238C13.024 24.8128 12.2528 24.6392 12.1541 24.6392C11.9164 24.6392 11.6322 24.8669 11.5858 25.0947C11.551 25.2844 11.6497 25.5338 11.812 25.664C11.8641 25.6966 12.3397 25.8376 12.879 25.9732C13.4125 26.1032 13.8763 26.2226 13.9052 26.228C13.94 26.2388 13.4994 26.4992 12.9368 26.8027C11.8874 27.372 11.7366 27.4966 11.7366 27.7947C11.7366 28.017 11.9453 28.261 12.189 28.3315C12.4615 28.4074 12.4036 28.4291 13.6444 27.7568C14.1316 27.4966 14.5373 27.2905 14.5489 27.3013C14.5604 27.3121 14.4562 27.7242 14.3112 28.2067C14.1719 28.6945 14.0559 29.1608 14.0559 29.2476C14.0559 29.4863 14.3227 29.7355 14.6125 29.7734C14.8154 29.7952 14.8792 29.7788 15.0415 29.6432C15.2156 29.4968 15.2562 29.383 15.6619 27.9734C15.8996 27.1385 16.1083 26.4392 16.1316 26.4228C16.1549 26.4011 17.3318 25.7615 18.7525 24.9971L21.3328 23.609L21.3501 26.439L21.3616 29.2744L20.2077 30.3587C19.5757 30.9549 19.0247 31.4971 18.9901 31.5622C18.7176 32.0664 19.2802 32.5868 19.8134 32.332C19.8831 32.2994 20.26 31.9741 20.6543 31.6163L21.3616 30.9549V32.0067C21.3616 33.1886 21.4022 33.3512 21.7385 33.4975C21.9762 33.606 22.0226 33.606 22.2605 33.4975C22.5969 33.3512 22.6374 33.1884 22.6374 32.0067V30.9549L23.3505 31.6163C23.739 31.9741 24.116 32.2994 24.1856 32.332C24.7191 32.5868 25.2814 32.0662 25.0089 31.5622C24.9741 31.4971 24.4233 30.9549 23.7911 30.3587L22.6374 29.2744L22.649 26.439L22.6663 23.609L25.2811 25.0186L27.8963 26.4282L28.3253 27.9355C28.7138 29.3125 28.7661 29.4535 28.94 29.6216C29.114 29.7844 29.1604 29.8006 29.3805 29.7734C29.6703 29.7355 29.9431 29.4914 29.9431 29.2584C29.9431 29.1772 29.8271 28.7109 29.6879 28.2174C29.5488 27.724 29.4386 27.3121 29.4502 27.3013C29.4617 27.2905 29.8677 27.4964 30.3546 27.7568C31.5954 28.4291 31.5376 28.4074 31.8101 28.3315C32.0593 28.261 32.2624 28.017 32.2624 27.7839C32.2624 27.4966 32.0711 27.3341 31.1433 26.8406C30.6446 26.5804 30.1983 26.331 30.146 26.2985C30.0706 26.2498 30.2329 26.19 30.9868 26.0057C32.1697 25.713 32.1813 25.7076 32.3203 25.4961C32.558 25.1437 32.2797 24.6395 31.8449 24.6395C31.7462 24.6395 30.9753 24.813 30.1287 25.0245C29.2821 25.2359 28.5457 25.3931 28.4879 25.3823C28.3604 25.3495 23.2754 22.617 23.2754 22.5791C23.2754 22.5411 28.3546 19.8086 28.4821 19.776C28.546 19.7652 29.2823 19.9224 30.1289 20.1339C30.9755 20.3453 31.7467 20.5189 31.8451 20.5189C32.0828 20.5189 32.3671 20.2912 32.4134 20.0634C32.454 19.8519 32.3265 19.5809 32.1294 19.4725C32.0598 19.4292 31.5669 19.2882 31.0336 19.158C30.4943 19.0278 30.0768 18.9086 30.1059 18.887C30.1292 18.8653 30.587 18.6105 31.1205 18.3231C32.1003 17.7917 32.2629 17.6564 32.2629 17.3744C32.2629 17.0545 31.8511 16.7292 31.5323 16.7997C31.4627 16.8161 30.9697 17.0653 30.4365 17.3526C29.9088 17.64 29.4624 17.8676 29.4509 17.8568C29.4394 17.846 29.5496 17.4339 29.6886 16.9407C29.8278 16.4472 29.9438 15.9756 29.9438 15.8943C29.9438 15.7859 29.8799 15.6774 29.7467 15.5526C29.4742 15.2978 29.1959 15.2978 28.9349 15.5418C28.7669 15.7044 28.7088 15.8671 28.326 17.2224L27.897 18.724L25.2819 20.139L22.6665 21.5491L22.6492 18.7191L22.6377 15.8837L23.7913 14.7994C24.4235 14.2032 24.9743 13.661 25.0091 13.5959C25.2816 13.0917 24.7191 12.5713 24.1858 12.8261C24.1162 12.8587 23.7392 13.184 23.3508 13.5418L22.6377 14.2032V13.1514C22.6377 11.9695 22.5971 11.8069 22.2607 11.6606C22.0228 11.5517 21.9592 11.5517 21.7272 11.6601Z" fill="#6290C3" stroke="#6290C3" stroke-width="0.8"/>
</svg>
