<svg width="408" height="71" viewBox="0 0 408 71" fill="none" xmlns="http://www.w3.org/2000/svg">
<path fill-rule="evenodd" clip-rule="evenodd" d="M63.1433 18.0222C63.5407 18.5313 63.9215 19.0546 64.2848 19.5915C64.8572 20.4373 65.3816 21.3098 65.8567 22.2051C67.9139 26.0811 69.0476 30.382 69.1563 34.7775C69.162 35.01 69.1649 35.2427 69.1649 35.4757C69.1649 39.666 68.2333 43.7613 66.4833 47.4919C65.7862 48.9782 64.9591 50.4065 64.0094 51.7598C63.0289 53.1569 61.9177 54.4741 60.6836 55.6926C55.2532 61.0544 47.8879 64.0666 40.208 64.0666C36.829 64.0666 33.4947 63.4829 30.3506 62.3591C28.7699 61.794 27.2372 61.0924 25.771 60.2598C25.2108 59.9416 24.6602 59.6043 24.1204 59.2482C20.362 56.7686 17.2579 53.4645 15.039 49.6133C14.4465 48.5851 13.9172 47.5179 13.4553 46.417C11.9411 42.8074 11.1993 38.9475 11.2539 35.0771C11.2784 33.3457 11.4622 31.6121 11.8075 29.8979C12.4694 26.6124 13.7071 23.4854 15.448 20.6508C16.6457 18.7005 18.0818 16.8887 19.7324 15.2589C21.7351 13.2815 24.0093 11.616 26.4761 10.3041C27.9692 9.51004 29.5328 8.84553 31.1495 8.31979C32.2627 7.95778 33.401 7.66158 34.5588 7.43419C40.1759 6.331 45.9981 6.8972 51.2893 9.06118C55.9764 10.9781 60.0602 14.0725 63.1433 18.0222ZM70.213 19.7482L66.5588 21.8307C68.6874 25.8231 69.8536 30.2468 69.9666 34.7572C69.9726 34.9968 69.9756 35.2363 69.9757 35.4757C69.9766 39.742 69.034 43.9601 67.2103 47.8342L70.8566 49.938L72.4008 50.829C71.6743 52.3232 70.8438 53.7615 69.9169 55.1341L69.9002 55.1588C68.1672 57.7202 66.098 60.0527 63.7412 62.0928C60.1147 65.2322 55.8822 67.6145 51.2987 69.0963C46.7151 70.5782 41.8753 71.1289 37.0705 70.7153C33.5585 70.413 30.1184 69.6001 26.8599 68.3088C25.6604 67.8335 24.4855 67.2933 23.3406 66.6899L21.7062 69.4885L21.1616 70.421L21.1615 70.4209L20.6766 70.1565C20.5053 70.0626 20.3347 69.9675 20.165 69.8712C19.557 69.5264 18.9592 69.1664 18.372 68.7918C17.8732 68.4735 17.382 68.1447 16.8988 67.8056C12.2459 64.5397 8.33668 60.3217 5.44891 55.4204C5.39963 55.3367 5.35066 55.2529 5.30202 55.169C1.75921 49.0534 -0.0710399 42.1148 0.00210977 35.0663L0.00223771 35.0542C0.0776165 28.0017 2.0559 21.098 5.7311 15.0538C5.7772 14.978 5.82356 14.9023 5.8702 14.8267C8.85829 9.98617 12.8529 5.84909 17.571 2.6784L17.5999 2.65895C18.6664 1.94356 19.7698 1.27752 20.9069 0.663859C21.0707 0.575427 21.2353 0.488083 21.4005 0.401836L21.8855 0.151665L22.4215 1.06777L24.0935 3.92566C25.2608 3.34534 26.4539 2.83129 27.6669 2.38397C35.1286 -0.367551 43.3481 -0.594411 51.0108 1.80688C58.3029 4.09206 64.6169 8.60892 69.0792 14.6394C69.7494 15.5451 70.3778 16.485 70.9615 17.4566C71.2391 17.9188 71.5067 18.3881 71.7638 18.8644L70.213 19.7482ZM23.5594 5.26358L23.4038 4.99831L23.1115 4.50018L21.4367 1.64554C20.6149 2.08909 19.8112 2.56075 19.027 3.05929C18.727 3.25005 18.4297 3.44473 18.1355 3.64329C17.8188 3.85695 17.5055 4.07509 17.1957 4.29762C13.041 7.28166 9.51045 11.0555 6.82087 15.4136C6.7756 15.4869 6.73057 15.5605 6.68578 15.6341C3.11489 21.5082 1.19372 28.2157 1.11999 35.0662L1.11986 35.0779C1.04828 41.9245 2.82458 48.6664 6.26627 54.6107C6.3135 54.6923 6.36102 54.7736 6.40883 54.8548C9.00169 59.2581 12.4443 63.0968 16.5255 66.162C16.8337 66.3934 17.1455 66.6205 17.4609 66.8431C18.1982 67.3633 18.9548 67.859 19.7297 68.3289C20.0542 68.5257 20.382 68.718 20.7128 68.9056L22.3516 66.1123L22.6814 65.5502L22.8372 65.2847L23.2513 64.5788L24.8592 61.8382L25.3676 60.9717C25.1071 60.8241 24.8492 60.6727 24.5939 60.5177C24.2816 60.3282 23.9732 60.1331 23.6688 59.9327C19.8219 57.3997 16.6173 54.0112 14.3191 50.0288C13.7043 48.9635 13.1596 47.8648 12.6867 46.7394C11.1379 43.0531 10.3603 39.0815 10.4169 35.0653C10.4422 33.2671 10.6345 31.4824 10.9873 29.7327C11.6632 26.3816 12.9284 23.1587 14.739 20.2148C15.9846 18.1896 17.4678 16.3297 19.1511 14.6702C20.5932 13.2485 22.1822 11.974 23.8944 10.8685C24.6061 10.4091 25.339 9.97892 26.0915 9.57952L25.6085 8.75627L23.9748 5.97171L23.5594 5.26358ZM25.5262 13.7774C29.8726 10.91 34.9819 9.37988 40.208 9.37988V9.88075L40.2086 9.37988C47.2139 9.38759 53.9313 12.1386 58.8868 17.0314C63.8424 21.9244 66.6311 28.5599 66.6389 35.4825V35.483C66.6389 40.6472 65.088 45.6948 62.1829 49.9876C59.2779 54.2803 55.1495 57.6251 50.3206 59.6001C45.4918 61.5749 40.1786 62.0916 35.0528 61.0849C29.9269 60.0781 25.2176 57.5931 21.5208 53.943C17.8239 50.2928 15.3056 45.6414 14.2852 40.5767C13.2649 35.5119 13.7886 30.2622 15.7899 25.4917C17.7912 20.7213 21.1798 16.6449 25.5262 13.7774ZM49.6207 13.0576C45.1265 11.2196 40.1808 10.7386 35.4093 11.6757C30.6379 12.6128 26.2559 14.9257 22.8172 18.321C19.3785 21.7162 17.0375 26.0411 16.0891 30.7486C15.1408 35.4561 15.6275 40.3355 17.4879 44.7702C19.3484 49.205 22.4994 52.9965 26.5435 55.6645C30.5875 58.3325 35.3426 59.7569 40.2075 59.7571C46.7293 59.7496 52.9806 57.1882 57.5904 52.6368C62.1999 48.0855 64.7917 41.9161 64.7992 35.4825C64.7991 30.6831 63.3577 25.9911 60.6565 21.9996C57.9551 18.0078 54.1149 14.8956 49.6207 13.0576ZM46.108 32.4309C47.597 31.6907 49.2405 31.304 50.9076 31.3016C53.4786 31.2988 55.9649 32.209 57.9126 33.866C59.8604 35.523 61.1397 37.8162 61.5172 40.3272C61.8946 42.8382 61.3449 45.3995 59.9685 47.5436C58.5921 49.6877 56.4807 51.2716 54.0197 52.0062C51.5587 52.7408 48.9122 52.5772 46.5633 51.5451C44.2144 50.5131 42.3196 48.6815 41.2249 46.3846C40.1302 44.0877 39.9085 41.4787 40.6003 39.0338C41.2921 36.5889 42.8512 34.4712 44.9931 33.0671C43.5037 33.8097 41.8585 34.1965 40.1899 34.1965C38.5213 34.1965 36.8761 33.8097 35.3867 33.0671C37.7072 34.5821 39.3388 36.9299 39.9356 39.6127C40.5325 42.2956 40.0475 45.1024 38.5837 47.4382C37.1198 49.7739 34.7921 51.4549 32.0941 52.1246C29.3962 52.7944 26.5401 52.4003 24.1314 51.0259C21.7228 49.6515 19.951 47.4048 19.1918 44.7623C18.4326 42.1198 18.7456 39.2892 20.0644 36.8708C21.3833 34.4523 23.6043 32.6361 26.2566 31.8072C28.9089 30.9784 31.7838 31.2021 34.2718 32.4309C32.3484 31.175 30.886 29.3405 30.1014 27.1995C29.3169 25.0585 29.2518 22.7249 29.916 20.5445C30.5801 18.3641 31.9381 16.4531 33.7887 15.0946C35.6393 13.7361 37.8839 13.0025 40.1899 13.0025C42.4959 13.0025 44.7405 13.7361 46.5911 15.0946C48.4417 16.4531 49.7997 18.3641 50.4638 20.5445C51.128 22.7249 51.063 25.0585 50.2784 27.1995C49.4938 29.3405 48.0314 31.175 46.108 32.4309ZM35.1807 45.6579C35.9347 44.5414 36.3364 43.2293 36.335 41.8874C36.3312 40.0902 35.6059 38.3678 34.3182 37.0976C33.0304 35.8275 31.2852 35.1132 29.465 35.1113C28.1059 35.1113 26.7774 35.5093 25.6475 36.255C24.5175 37.0007 23.637 38.0605 23.1172 39.3004C22.5975 40.5402 22.4618 41.9045 22.7275 43.2205C22.9932 44.5365 23.6482 45.7451 24.6097 46.6935C25.5712 47.6419 26.796 48.2873 28.1292 48.5482C29.4623 48.8092 30.8438 48.6738 32.0991 48.1593C33.3543 47.6448 34.4267 46.7743 35.1807 45.6579ZM36.3905 29.243C37.5204 29.9887 38.8489 30.3867 40.208 30.3867C42.0288 30.3867 43.7751 29.673 45.0633 28.4025C46.3515 27.1319 47.0761 25.4084 47.078 23.6106C47.0795 22.2687 46.6778 20.9566 45.9237 19.8402C45.1697 18.7237 44.0973 17.8532 42.8421 17.3387C41.5869 16.8242 40.2053 16.6888 38.8722 16.9498C37.539 17.2107 36.3142 17.8562 35.3527 18.8045C34.3912 19.7529 33.7362 20.9615 33.4705 22.2775C33.2048 23.5935 33.3405 24.9578 33.8602 26.1977C34.38 27.4375 35.2605 28.4973 36.3905 29.243ZM47.0908 47.5274C48.2206 48.2727 49.5488 48.6706 50.9076 48.6706C52.729 48.6687 54.4753 47.9534 55.7633 46.6817C57.0513 45.41 57.7757 43.6858 57.7776 41.8874C57.7776 40.5458 57.3747 39.2343 56.6198 38.1188C55.8649 37.0033 54.792 36.1339 53.5366 35.6205C52.2813 35.1071 50.9 34.9728 49.5673 35.2345C48.2346 35.4963 47.0105 36.1423 46.0497 37.0909C45.0889 38.0396 44.4346 39.2482 44.1696 40.564C43.9045 41.8798 44.0405 43.2437 44.5605 44.4832C45.0805 45.7227 45.961 46.782 47.0908 47.5274Z" fill="url(#paint0_linear_1_418)"/>
<path fill-rule="evenodd" clip-rule="evenodd" d="M217.328 29.6729C216.844 31.1695 216.596 32.8402 216.596 34.6848C216.596 36.5875 216.832 38.2813 217.328 39.7896C217.812 41.2862 218.509 42.5623 219.418 43.6065C220.316 44.6506 221.391 45.4395 222.643 45.9964C223.895 46.5417 225.277 46.8201 226.789 46.8201C228.631 46.8201 230.167 46.4953 231.431 45.8572C232.695 45.2075 233.781 44.3258 234.714 43.212L232.328 41.1237C230.734 42.8988 228.915 43.7921 226.86 43.7921C225.761 43.7921 224.781 43.5485 223.942 43.0844C223.104 42.6203 222.395 41.9823 221.816 41.1585C221.237 40.3348 220.812 39.3719 220.529 38.2697C220.245 37.1676 220.104 35.9726 220.104 34.6964C220.104 33.3971 220.245 32.1905 220.541 31.0883C220.836 29.9746 221.261 29.0232 221.84 28.2343C222.419 27.4454 223.115 26.8189 223.93 26.3781C224.757 25.9256 225.702 25.7052 226.777 25.7052C227.828 25.7052 228.785 25.9024 229.659 26.2969C230.533 26.6913 231.372 27.3294 232.175 28.2227L234.561 25.9952C233.628 24.8931 232.541 24.0577 231.277 23.4777C230.025 22.9092 228.537 22.6191 226.824 22.6191C225.312 22.6191 223.93 22.8976 222.667 23.4661C221.403 24.0345 220.328 24.8351 219.418 25.8792C218.509 26.9233 217.812 28.1879 217.328 29.6729ZM123.545 35.7638H111.887V46.4605H108.438V23.0252H111.887V32.7474H123.545V23.0252H126.982V46.4605H123.545V35.7638ZM96.1897 37.7477C96.6031 36.9124 97.0401 35.9031 97.4889 34.7197C97.9378 33.5479 98.4102 32.3762 98.8945 31.2276C99.529 29.703 100.131 28.2424 100.711 26.8356L100.711 26.8347L100.711 26.834L100.784 26.6566C101.387 25.1948 101.883 23.9998 102.273 23.0949H105.757L97.4771 42.1099C96.7212 43.8386 95.8353 45.0567 94.8195 45.7644C93.8038 46.4721 92.7407 46.8318 91.6068 46.8318H89.8824V44.0474H90.8745C91.4887 44.0474 92.032 43.9314 92.5281 43.711C93.0124 43.4789 93.4376 43.0149 93.7801 42.3188L94.3353 41.1702L86.457 23.0949H89.9768L93.4612 31.448C93.8744 32.4569 94.2994 33.5005 94.748 34.6021L94.7484 34.6031L94.7487 34.6037C95.1857 35.6942 95.6109 36.75 96.0361 37.7593H96.1897V37.7477ZM147.404 28.3852V46.4605H150.782V23.0252H147.404L139.266 34.9401L135.085 41.1354H135.014V23.0252H131.648V46.4605H135.014L142.904 34.9749L147.333 28.3852H147.404ZM169.185 33.8263C170.401 34.1164 171.429 34.7661 172.267 35.7754C173.094 36.7848 173.519 38.0029 173.519 39.4531C173.519 41.7155 172.811 43.4441 171.417 44.6623C170.011 45.8804 168.039 46.4837 165.499 46.4837H155.601V23.0252H165.665C167.72 23.0252 169.385 23.5241 170.661 24.5334C171.937 25.5428 172.574 26.9814 172.574 28.8608C172.574 29.9398 172.267 30.9259 171.641 31.8309C171.015 32.7358 170.2 33.3623 169.208 33.7219V33.8263H169.185ZM158.885 25.972V32.5618H165.334C166.503 32.5618 167.425 32.2485 168.098 31.5988C168.771 30.9607 169.102 30.1602 169.102 29.1857C169.102 28.1996 168.795 27.4106 168.181 26.8306C167.566 26.2505 166.669 25.9604 165.464 25.9604H158.885V25.972ZM158.885 35.4042V43.4325H165.428C166.999 43.4325 168.169 43.0844 168.925 42.3767C169.681 41.669 170.07 40.6829 170.07 39.4183C170.07 38.1073 169.622 37.1096 168.724 36.4251C167.826 35.7406 166.716 35.4042 165.393 35.4042H158.885ZM193.386 23.0252H177.618V46.4605H193.823V43.4441H181.067V35.5202H189.795V32.4922H181.067V26.0417H193.386V23.0252ZM214.47 30.2298C214.47 31.4596 214.269 32.527 213.879 33.4551C213.489 34.3832 212.934 35.1489 212.214 35.7638C211.493 36.3787 210.643 36.8428 209.651 37.156C208.658 37.4693 207.572 37.6201 206.379 37.6201H200.083V46.4837H196.752V23.0252H206.627C207.773 23.0252 208.824 23.1761 209.769 23.4777C210.714 23.7793 211.54 24.2318 212.237 24.8235C212.934 25.4268 213.477 26.1693 213.867 27.0742C214.269 27.9791 214.47 29.0233 214.47 30.2298ZM200.095 25.972V34.6501H206.544C207.962 34.6269 209.06 34.244 209.84 33.5131C210.619 32.7822 211.009 31.7032 211.009 30.2878C211.009 28.8725 210.584 27.7935 209.745 27.0626C208.906 26.3317 207.808 25.9604 206.461 25.9604H200.095V25.972ZM241.849 41.1006C241.507 42.0157 241.165 42.9077 240.823 43.7996L240.821 43.8037C240.65 44.2504 240.478 44.6942 240.307 45.138L240.307 45.1389C240.136 45.5824 239.965 46.0258 239.793 46.4721H236.238L245.546 23.0252H249.29C250.825 26.9582 252.373 30.8679 253.908 34.7429C255.444 38.6178 257.015 42.5276 258.597 46.4605H254.971C254.8 46.0139 254.629 45.5701 254.457 45.1263L254.457 45.1255C254.286 44.682 254.115 44.2385 253.944 43.7921C253.601 42.8988 253.258 42.0055 252.916 41.089H241.849V41.1006ZM251.865 38.2582C251.132 36.2859 250.388 34.3832 249.632 32.527C248.876 30.6823 248.144 28.6868 247.435 26.5521H247.329L242.888 38.2582H251.865ZM267.078 36.6688V26.0069H275.381V46.4721H278.83V23.06H263.759V38.1422C263.759 39.1515 263.723 39.9868 263.652 40.6597C263.582 41.3326 263.416 41.8895 263.156 42.3188C262.897 42.748 262.519 43.0845 262.034 43.3281C261.538 43.5717 260.877 43.769 260.05 43.9082L260.31 46.7506C262.07 46.7506 263.404 46.4489 264.338 45.834C265.271 45.2192 265.932 44.4302 266.334 43.4557C266.735 42.4812 266.96 41.3906 267.007 40.1957C267.054 39.0007 267.078 37.8173 267.078 36.6688ZM300.622 46.4605H296.406L287.098 35.0909L286.98 35.1257V46.4605H283.543V23.0252H286.98V33.8612L287.098 33.896L296.807 23.0252H300.693L290.571 34.4064L300.622 46.4605ZM306.599 43.8037C306.941 42.9104 307.284 42.0171 307.627 41.1006V41.089H318.694C319.036 42.0055 319.379 42.8988 319.721 43.7921C319.893 44.2385 320.064 44.682 320.235 45.1255L320.235 45.1263C320.407 45.5701 320.578 46.0139 320.749 46.4605H324.375C322.792 42.5276 321.222 38.6178 319.686 34.7429C318.151 30.8679 316.603 26.9582 315.068 23.0252H311.324L302.016 46.4721H305.571C305.743 46.0255 305.914 45.5818 306.085 45.138C306.256 44.6942 306.428 44.2504 306.599 43.8037ZM315.398 32.527C316.154 34.3832 316.899 36.2859 317.631 38.2582H308.654L313.095 26.5521H313.202C313.91 28.6868 314.643 30.6823 315.398 32.527ZM345.022 39.5459C344.998 41.7503 344.289 43.4557 342.919 44.6623C341.537 45.8572 339.588 46.4605 337.073 46.4605H327.139V23.0252H342.754V26.0533H330.434V32.5386H337.002C339.494 32.5386 341.455 33.1186 342.884 34.2904C344.301 35.439 345.022 37.2024 345.022 39.5459ZM341.644 39.4647C341.644 38.177 341.242 37.1908 340.439 36.5063C339.636 35.8218 338.537 35.4854 337.143 35.4854H330.434V43.4441H337.108C338.549 43.4441 339.671 43.1076 340.462 42.4231C341.254 41.7387 341.644 40.7525 341.644 39.4647ZM364.711 23.0252H348.943V46.4605H365.148V43.4441H352.392V35.5202H361.121V32.4922H352.392V26.0417H364.711V23.0252ZM373.877 26.0069V36.6688C373.877 37.8173 373.853 39.0007 373.806 40.1957C373.759 41.3906 373.535 42.4812 373.133 43.4557C372.731 44.4302 372.058 45.2192 371.137 45.834C370.204 46.4489 368.869 46.7506 367.109 46.7506L366.849 43.9082C367.676 43.769 368.337 43.5717 368.834 43.3281C369.318 43.0845 369.696 42.748 369.956 42.3188C370.215 41.8895 370.381 41.3326 370.452 40.6597C370.523 39.9868 370.558 39.1515 370.558 38.1422V23.06H385.629V46.4721H382.181V26.0069H373.877ZM393.708 23.06H390.259H390.248V46.4605H400.346C401.492 46.4605 402.543 46.3213 403.488 46.0313C404.433 45.7412 405.236 45.312 405.898 44.7319C406.559 44.1518 407.079 43.4441 407.445 42.5856C407.811 41.7271 408 40.7293 408 39.5692C408 37.3068 407.315 35.5782 405.933 34.3716C404.551 33.1651 402.638 32.5618 400.193 32.5618H393.708V23.06ZM393.708 43.4441V35.5898V35.5782H400.016C401.35 35.5782 402.449 35.9031 403.287 36.5643C404.126 37.2256 404.551 38.2002 404.551 39.488C404.551 40.2073 404.445 40.8221 404.209 41.321C403.973 41.8199 403.654 42.2259 403.24 42.5392C402.827 42.8524 402.343 43.0845 401.799 43.2237C401.244 43.3745 400.677 43.4441 400.063 43.4441H393.708Z" fill="url(#paint1_linear_1_418)"/>
<defs>
<linearGradient id="paint0_linear_1_418" x1="-0.739436" y1="13.9767" x2="78.0873" y2="68.836" gradientUnits="userSpaceOnUse">
<stop stop-color="#FFE49A"/>
<stop offset="0.247401" stop-color="#FEC680"/>
<stop offset="0.504999" stop-color="#FEC881"/>
<stop offset="0.721379" stop-color="#FED189"/>
<stop offset="0.96" stop-color="#FEDD94"/>
</linearGradient>
<linearGradient id="paint1_linear_1_418" x1="86.457" y1="37.6601" x2="479.878" y2="37.6601" gradientUnits="userSpaceOnUse">
<stop stop-color="#FFE69C"/>
<stop offset="0.504999" stop-color="#FEC37D"/>
<stop offset="0.96" stop-color="#FFEAA0"/>
</linearGradient>
</defs>
</svg>
