<svg width="20" height="13" viewBox="0 0 20 13" fill="none" xmlns="http://www.w3.org/2000/svg">
<g clip-path="url(#clip0_202_4013)">
<path d="M1.1282 0.226843C1.2822 0.171565 1.4462 0.13916 1.6202 0.13916H18.3802C18.5542 0.13916 18.7182 0.173471 18.8722 0.226843L11.3642 6.96893C10.6002 7.65514 9.40219 7.65514 8.6382 6.96893L1.1282 0.226843ZM19.5902 12.207C19.7202 12.0031 19.8002 11.7648 19.8002 11.5094V1.49063C19.8002 1.30954 19.7622 1.13608 19.6922 0.97787L12.6642 7.28725L19.5902 12.207ZM12.0302 7.84767C11.4462 8.3242 10.7242 8.56629 10.0002 8.56629C9.2762 8.56629 8.5522 8.3242 7.9702 7.84767L1.0642 12.7541C1.2362 12.8227 1.4222 12.8628 1.6202 12.8628H18.3802C18.5782 12.8628 18.7642 12.8246 18.9362 12.7541L12.0302 7.84767ZM0.308195 0.97787C0.240195 1.13608 0.200195 1.30954 0.200195 1.49063V11.5075C0.200195 11.7648 0.280195 12.0012 0.410195 12.2051L7.33619 7.28535L0.308195 0.97787Z" fill="#313238" fill-opacity="0.7"/>
</g>
<defs>
<clipPath id="clip0_202_4013">
<rect width="20" height="13" fill="white"/>
</clipPath>
</defs>
</svg>
