<svg width="80" height="90" viewBox="0 0 80 90" fill="none" xmlns="http://www.w3.org/2000/svg">
<rect width="80" height="90" rx="8" fill="#E94848"/>
<g clip-path="url(#clip0_1_1635)">
<path fill-rule="evenodd" clip-rule="evenodd" d="M48.014 35.1078L40.0108 41.9972L32.0076 35.1078L33.5286 33.7666L38.9441 38.4282L38.9612 20H41.0593L41.0422 38.4584L46.4929 33.7666L48.014 35.1078Z" fill="white"/>
</g>
<path d="M27.12 67H28.792V62.864H31.776C31.992 62.864 32.36 62.848 32.664 62.8C34.584 62.496 35.552 61.04 35.552 59.168C35.552 57.304 34.592 55.84 32.664 55.544C32.36 55.496 32 55.48 31.776 55.48H27.12V67ZM28.792 61.28V57.056H31.712C31.92 57.056 32.2 57.072 32.44 57.136C33.464 57.376 33.848 58.32 33.848 59.168C33.848 60.016 33.464 60.96 32.44 61.208C32.2 61.264 31.92 61.28 31.712 61.28H28.792ZM37.1513 67H40.7593C40.9673 67 41.6553 67 42.1913 66.928C44.8953 66.584 46.3353 64.176 46.3353 61.24C46.3353 58.304 44.8953 55.896 42.1913 55.552C41.6553 55.48 40.9673 55.48 40.7593 55.48H37.1513V67ZM38.8633 65.408V57.072H40.7593C41.1113 57.072 41.6873 57.08 42.0713 57.152C43.7993 57.472 44.5593 59.216 44.5593 61.24C44.5593 63.216 43.8313 64.992 42.0713 65.328C41.6873 65.4 41.1273 65.408 40.7593 65.408H38.8633ZM48.1981 67H49.8701V62.08H54.0621V60.4H49.8701V57.152H55.0221V55.48H48.1981V67Z" fill="white"/>
<defs>
<clipPath id="clip0_1_1635">
<rect width="16" height="22" fill="white" transform="translate(32 20)"/>
</clipPath>
</defs>
</svg>
