<svg width="59" height="68" viewBox="0 0 59 68" fill="none" xmlns="http://www.w3.org/2000/svg">
<path fill-rule="evenodd" clip-rule="evenodd" d="M45.4062 19.4062C45.4062 28.191 38.2848 35.3125 29.5 35.3125C20.7152 35.3125 13.5938 28.191 13.5938 19.4062C13.5938 10.6215 20.7152 3.5 29.5 3.5C38.2848 3.5 45.4062 10.6215 45.4062 19.4062ZM36.3918 37.0171C43.4252 34.2625 48.4062 27.4161 48.4062 19.4062C48.4062 8.96462 39.9416 0.5 29.5 0.5C19.0584 0.5 10.5938 8.96462 10.5938 19.4062C10.5938 27.4161 15.5748 34.2625 22.6083 37.0171C15.6688 38.1164 10.6733 40.8594 7.19405 44.1849C2.69069 48.4891 0.82254 53.6805 0.505862 57.2521C0.501956 57.2962 0.5 57.3404 0.5 57.3846V66C0.5 66.8284 1.17157 67.5 2 67.5C2.82843 67.5 3.5 66.8284 3.5 66V57.4531C3.77357 54.5611 5.34873 50.0985 9.26689 46.3536C13.1788 42.6147 19.5234 39.5 29.5 39.5C39.4766 39.5 45.8212 42.6147 49.7331 46.3536C53.6513 50.0985 55.2264 54.561 55.5 57.4531V66C55.5 66.8284 56.1716 67.5 57 67.5C57.8284 67.5 58.5 66.8284 58.5 66V57.3846C58.5 57.3404 58.498 57.2962 58.4941 57.2521C58.1775 53.6805 56.3093 48.4891 51.806 44.1849C48.3267 40.8594 43.3312 38.1164 36.3918 37.0171Z" fill="url(#paint0_linear_3_2915)"/>
<defs>
<linearGradient id="paint0_linear_3_2915" x1="8.40909" y1="7.35227" x2="54.4118" y2="61.1307" gradientUnits="userSpaceOnUse">
<stop stop-color="#F79E67"/>
<stop offset="0.501358" stop-color="#F79E67"/>
<stop offset="1" stop-color="#FDCD81"/>
</linearGradient>
</defs>
</svg>
