<svg width="61" height="61" viewBox="0 0 61 61" fill="none" xmlns="http://www.w3.org/2000/svg">
<path d="M28.963 38.6121L28.9632 38.612L42.7794 25.1923C43.5671 24.4253 43.5769 23.186 42.7952 22.4095C42.0151 21.6347 40.739 21.6248 39.9493 22.3937L39.949 22.394L27.8466 34.1487L27.5956 34.3925L27.3517 34.1415L21.0812 27.688C21.0811 27.6879 21.081 27.6878 21.0809 27.6877C20.3119 26.8982 19.0415 26.8712 18.2344 27.6262C17.4327 28.3762 17.4059 29.6214 18.1674 30.409C18.1674 30.409 18.1675 30.4091 18.1675 30.4091L26.0907 38.5702L28.963 38.6121ZM28.963 38.6121C28.5838 38.981 28.0799 39.184 27.5478 39.184H27.5478H27.5477H27.5476H27.5476H27.5475H27.5474H27.5473H27.5473H27.5472H27.5471H27.5471H27.547H27.5469H27.5468H27.5468H27.5467H27.5466H27.5466H27.5465H27.5464H27.5463H27.5463H27.5462H27.5461H27.5461H27.546H27.5459H27.5458H27.5458H27.5457H27.5456H27.5456H27.5455H27.5454H27.5453H27.5453H27.5452H27.5451H27.5451H27.545H27.5449H27.5448H27.5448H27.5447H27.5446H27.5446H27.5445H27.5444H27.5443H27.5443H27.5442H27.5441H27.5441H27.544H27.5439H27.5438H27.5438H27.5437H27.5436H27.5436H27.5435H27.5434H27.5433H27.5433H27.5432H27.5431H27.5431H27.543H27.5429H27.5428H27.5428H27.5427H27.5426H27.5426H27.5425H27.5424H27.5423H27.5423H27.5422H27.5421H27.5421H27.542H27.5419H27.5418H27.5418H27.5417H27.5416H27.5416H27.5415H27.5414H27.5413H27.5413H27.5412H27.5411H27.5411H27.541H27.5409H27.5408H27.5408H27.5407H27.5406H27.5406H27.5405H27.5404H27.5403H27.5403H27.5402H27.5401H27.5401H27.54H27.5399H27.5398H27.5398H27.5397H27.5396H27.5396H27.5395H27.5394H27.5393H27.5393H27.5392H27.5391H27.5391H27.539H27.5389H27.5388H27.5388H27.5387H27.5386H27.5386H27.5385H27.5384H27.5383H27.5383H27.5382H27.5381H27.5381H27.538H27.5379H27.5378H27.5378H27.5377H27.5376H27.5376H27.5375H27.5374H27.5373H27.5373H27.5372H27.5371H27.5371H27.537H27.5369H27.5368H27.5368H27.5367H27.5366H27.5366H27.5365H27.5364H27.5363H27.5363H27.5362H27.5361H27.5361H27.536H27.5359H27.5358H27.5358H27.5357H27.5356H27.5356H27.5355H27.5354H27.5353H27.5353H27.5352H27.5351H27.5351H27.535H27.5349H27.5348H27.5348H27.5347H27.5346H27.5346H27.5345H27.5344H27.5343H27.5343H27.5342H27.5341H27.5341H27.534H27.5339H27.5338H27.5338H27.5337H27.5336H27.5336H27.5335H27.5334H27.5333H27.5333H27.5332H27.5331H27.5331H27.533H27.5329H27.5328H27.5328H27.5327H27.5326H27.5326H27.5325H27.5324H27.5323H27.5323H27.5322H27.5321H27.5321H27.532H27.5319H27.5318H27.5318H27.5317H27.5316H27.5315H27.5315H27.5314H27.5313H27.5313H27.5312H27.5311H27.531H27.531H27.5309H27.5308H27.5308H27.5307H27.5306H27.5305H27.5305H27.5304H27.5303H27.5303H27.5302H27.5301H27.53H27.53H27.5299H27.5298H27.5298H27.5297H27.5296H27.5295H27.5295H27.5294H27.5293H27.5293H27.5292H27.5291H27.529H27.529H27.5289H27.5288H27.5288H27.5287H27.5286H27.5285H27.5285H27.5284H27.5283H27.5283H27.5282H27.5281H27.528H27.528H27.5279H27.5278H27.5278H27.5277H27.5276H27.5275H27.5275H27.5274H27.5273H27.5273H27.5272H27.5271H27.527H27.527H27.5269H27.5268H27.5268H27.5267H27.5266H27.5265H27.5265H27.5264H27.5263H27.5263H27.5262H27.5261H27.526H27.526H27.5259H27.5258H27.5258H27.5257H27.5256H27.5255H27.5255H27.5254H27.5253H27.5253H27.5252H27.5251H27.525H27.525H27.5249H27.5248H27.5248H27.5247H27.5246H27.5245H27.5245H27.5244H27.5243H27.5243H27.5242H27.5241H27.524H27.524H27.5239H27.5238H27.5238H27.5237H27.5236H27.5235H27.5235H27.5234H27.5233H27.5233H27.5232H27.5231H27.523H27.523H27.5229H27.5228H27.5228H27.5227H27.5226H27.5225H27.5225H27.5224H27.5223H27.5223H27.5222H27.5221H27.522H27.522H27.5219H27.5218H27.5218H27.5217H27.5216H27.5215H27.5215H27.5214H27.5213H27.5213H27.5212H27.5211H27.521H27.521H27.5209H27.5208H27.5208H27.5207H27.5206H27.5205H27.5205H27.5204H27.5203H27.5203H27.5202H27.5201H27.52H27.52H27.5199H27.5198H27.5198H27.5197H27.5196H27.5195H27.5195H27.5194H27.5193H27.5193H27.5192H27.5191H27.519H27.519H27.5189H27.5188H27.5188H27.5187H27.5186H27.5185H27.5185H27.5184H27.5183H27.5183H27.5182H27.5181H27.518H27.518H27.5179H27.5178H27.5178H27.5177H27.5176H27.5175H27.5175H27.5174H27.5173H27.5173H27.5172H27.5171H27.517H27.517H27.5169H27.5168H27.5168H27.5167H27.5166H27.5165H27.5165H27.5164H27.5163H27.5163H27.5162H27.5161H27.516H27.516H27.5159H27.5158H27.5158H27.5157H27.5156H27.5155H27.5155H27.5154H27.5153H27.5153H27.5152H27.5151H27.515H27.515H27.5149H27.5148H27.5148H27.5147M28.963 38.6121L27.5147 39.184M27.5147 39.184C26.9723 39.1728 26.4641 38.9538 26.091 38.5704L27.5147 39.184Z" fill="#76777C" stroke="#C6C6C7" stroke-width="0.7"/>
<path d="M51.1399 10.3889L51.1396 10.3888L29.9463 2.67567L29.9462 2.6756C29.6123 2.55388 29.2576 2.49038 28.8977 2.49038C28.5389 2.49038 28.1896 2.55349 27.8483 2.67595C27.848 2.67603 27.8478 2.67611 27.8476 2.67619L6.6558 10.3888L6.65551 10.3889C5.44633 10.8278 4.63076 11.9929 4.63076 13.2914V35.6642C4.63076 39.3851 5.95223 43.003 8.58597 46.4125L8.58617 46.4128C10.54 48.9471 13.2356 51.3756 16.5951 53.6301C22.1055 57.3218 27.5558 59.2916 27.8625 59.3991L27.8636 59.3994C28.1942 59.5165 28.5441 59.5799 28.8977 59.5799C29.248 59.5799 29.592 59.5216 29.92 59.4054L51.1399 10.3889ZM51.1399 10.3889C52.3489 10.8277 53.164 11.9982 53.1588 13.29V13.2914V35.6583C53.1588 39.385 51.8374 42.9971 49.2034 46.4128L49.2032 46.4131C47.2494 48.9532 44.5539 51.3815 41.1946 53.6301L41.1944 53.6302M51.1399 10.3889L41.1944 53.6302M41.1944 53.6302C35.6283 57.3614 30.1455 59.3253 29.9201 59.4053L41.1944 53.6302ZM45.9853 43.9448L45.9854 43.9447C48.0394 41.2785 49.0982 38.4927 49.0982 35.6642V14.2054V13.9603L48.8679 13.8765L29.0174 6.65282L28.8976 6.60925L28.7779 6.65287L8.93321 13.8824L8.70302 13.9663V14.2113V35.6642C8.70302 38.4985 9.76171 41.2844 11.816 43.945C13.5132 46.1466 15.8867 48.2704 18.8678 50.2667L18.8678 50.2668C23.1705 53.1471 27.3883 54.8799 28.7726 55.4095L28.8977 55.4574L29.0228 55.4095C30.4073 54.8798 34.6714 53.1175 38.9332 50.2668L38.9337 50.2666C41.9086 48.2704 44.288 46.1466 45.9853 43.9448Z" fill="#76777C" stroke="#C5C5C7" stroke-width="0.7"/>
</svg>
