<svg width="15" height="12" viewBox="0 0 15 12" fill="none" xmlns="http://www.w3.org/2000/svg">
<path d="M2.28527 6.64248C2.02828 6.41757 1.6934 6.29554 1.34781 6.30087C1.00222 6.3062 0.67148 6.43849 0.421937 6.67121C0.172394 6.90393 0.0225051 7.21987 0.00233552 7.55564C-0.017834 7.89142 0.0932079 8.22219 0.313188 8.48162L3.35349 11.5868C3.48077 11.7168 3.63373 11.8204 3.80317 11.8913C3.97261 11.9623 4.15505 11.9993 4.33953 12C4.52303 12.001 4.70487 11.9662 4.87426 11.8975C5.04364 11.8288 5.19712 11.7277 5.32557 11.6002L14.6108 2.27119C14.7367 2.14518 14.8358 1.99628 14.9026 1.83298C14.9694 1.66968 15.0024 1.49518 14.9999 1.31945C14.9973 1.14372 14.9592 0.970196 14.8878 0.80879C14.8163 0.647384 14.7129 0.501255 14.5834 0.378745C14.4539 0.256235 14.3009 0.159744 14.1331 0.094782C13.9653 0.0298196 13.786 -0.00234234 13.6054 0.000132731C13.4248 0.0026078 13.2465 0.0396712 13.0806 0.109207C12.9148 0.178743 12.7646 0.279389 12.6387 0.405399L4.35322 8.74816L2.28527 6.64248Z" fill="#F79E67"/>
</svg>
