<svg width="80" height="90" viewBox="0 0 80 90" fill="none" xmlns="http://www.w3.org/2000/svg">
<rect width="80" height="90" rx="8" fill="#21A465"/>
<g clip-path="url(#clip0_1_1641)">
<path fill-rule="evenodd" clip-rule="evenodd" d="M48.014 35.1078L40.0108 41.9972L32.0076 35.1078L33.5286 33.7666L38.9441 38.4282L38.9612 20H41.0593L41.0422 38.4584L46.4929 33.7666L48.014 35.1078Z" fill="white"/>
</g>
<path d="M26.16 67H28.216L31.12 62.592L34.016 67H36.064L32.144 61.168L35.968 55.48H33.912L31.12 59.752L28.312 55.48H26.264L30.088 61.168L26.16 67ZM37.4988 67H44.3868V65.424H39.1708V55.48H37.4988V67ZM49.921 67.24C52.297 67.24 54.337 66.032 54.337 63.712C54.337 61.464 52.409 60.896 51.345 60.6L49.217 60C48.401 59.776 47.425 59.432 47.425 58.472C47.425 57.488 48.473 56.808 49.761 56.832C51.081 56.848 52.217 57.624 52.465 58.928L54.257 58.624C53.785 56.504 52.121 55.272 49.785 55.248C47.465 55.24 45.657 56.416 45.657 58.552C45.657 60.416 47.041 61.104 48.193 61.44L51.145 62.312C51.993 62.568 52.593 62.992 52.593 63.824C52.593 64.976 51.401 65.664 50.017 65.664C48.521 65.664 47.305 64.848 46.953 63.432L45.209 63.696C45.585 65.888 47.433 67.24 49.921 67.24Z" fill="white"/>
<defs>
<clipPath id="clip0_1_1641">
<rect width="16" height="22" fill="white" transform="translate(32 20)"/>
</clipPath>
</defs>
</svg>
